HIERARCHY
ROOT mixamorig:Hips
{
	OFFSET -0.000008 104.274872 1.554316
	CHANNELS 6 Xposition Yposition Zposition Xrotation Yrotation Zrotation
	JOINT mixamorig:Spine
	{
		OFFSET -0.000005 10.181595 0.131519
		CHANNELS 6 Xposition Yposition Zposition Xrotation Yrotation Zrotation
		JOINT mixamorig:Spine1
		{
			OFFSET -0.000000 9.893959 -1.470707
			CHANNELS 6 Xposition Yposition Zposition Xrotation Yrotation Zrotation
			JOINT mixamorig:Spine2
			{
				OFFSET -0.000000 9.220757 -1.370641
				CHANNELS 6 Xposition Yposition Zposition Xrotation Yrotation Zrotation
				JOINT mixamorig:Neck
				{
					OFFSET 0.000001 16.740417 -2.049036
					CHANNELS 6 Xposition Yposition Zposition Xrotation Yrotation Zrotation
					JOINT mixamorig:Head
					{
						OFFSET 0.000000 9.617874 1.685006
						CHANNELS 6 Xposition Yposition Zposition Xrotation Yrotation Zrotation
						JOINT mixamorig:HeadTop_End
						{
							OFFSET 0.000002 22.037354 7.501101
							CHANNELS 6 Xposition Yposition Zposition Xrotation Yrotation Zrotation
							End Site
							{
								OFFSET 0.000168 2310.654297 -282.823242
							}
						}
					}
				}
				JOINT mixamorig:RightShoulder
				{
					OFFSET -4.569970 11.014908 -2.160885
					CHANNELS 6 Xposition Yposition Zposition Xrotation Yrotation Zrotation
					JOINT mixamorig:RightArm
					{
						OFFSET -10.592851 -0.524811 -2.232101
						CHANNELS 6 Xposition Yposition Zposition Xrotation Yrotation Zrotation
						JOINT mixamorig:RightForeArm
						{
							OFFSET -27.841511 0.000031 -0.000004
							CHANNELS 6 Xposition Yposition Zposition Xrotation Yrotation Zrotation
							JOINT mixamorig:RightHand
							{
								OFFSET -28.328831 -0.000015 0.000015
								CHANNELS 6 Xposition Yposition Zposition Xrotation Yrotation Zrotation
								JOINT mixamorig:RightHandThumb1
								{
									OFFSET -2.464806 -1.573990 2.681852
									CHANNELS 6 Xposition Yposition Zposition Xrotation Yrotation Zrotation
									JOINT mixamorig:RightHandThumb2
									{
										OFFSET -3.215179 -1.872803 1.924282
										CHANNELS 6 Xposition Yposition Zposition Xrotation Yrotation Zrotation
										JOINT mixamorig:RightHandThumb3
										{
											OFFSET -2.654831 -1.527969 1.512609
											CHANNELS 6 Xposition Yposition Zposition Xrotation Yrotation Zrotation
											JOINT mixamorig:RightHandThumb4
											{
												OFFSET -2.018814 -1.152008 1.108052
												CHANNELS 6 Xposition Yposition Zposition Xrotation Yrotation Zrotation
												End Site
												{
													OFFSET -188.809540 -114.533607 132.431396
												}
											}
										}
									}
								}
								JOINT mixamorig:RightHandIndex1
								{
									OFFSET -9.108284 -0.517868 2.259835
									CHANNELS 6 Xposition Yposition Zposition Xrotation Yrotation Zrotation
									JOINT mixamorig:RightHandIndex2
									{
										OFFSET -3.699989 0.000000 0.001215
										CHANNELS 6 Xposition Yposition Zposition Xrotation Yrotation Zrotation
										JOINT mixamorig:RightHandIndex3
										{
											OFFSET -2.850006 0.000031 -0.000522
											CHANNELS 6 Xposition Yposition Zposition Xrotation Yrotation Zrotation
											JOINT mixamorig:RightHandIndex4
											{
												OFFSET -2.772186 -0.000015 -0.000020
												CHANNELS 6 Xposition Yposition Zposition Xrotation Yrotation Zrotation
												End Site
												{
													OFFSET -277.218445 0.000000 -0.050231
												}
											}
										}
									}
								}
								JOINT mixamorig:RightHandMiddle1
								{
									OFFSET -9.532516 -0.000031 -0.000023
									CHANNELS 6 Xposition Yposition Zposition Xrotation Yrotation Zrotation
									JOINT mixamorig:RightHandMiddle2
									{
										OFFSET -3.700005 -0.000015 0.003713
										CHANNELS 6 Xposition Yposition Zposition Xrotation Yrotation Zrotation
										JOINT mixamorig:RightHandMiddle3
										{
											OFFSET -2.949974 0.000015 -0.002054
											CHANNELS 6 Xposition Yposition Zposition Xrotation Yrotation Zrotation
											JOINT mixamorig:RightHandMiddle4
											{
												OFFSET -2.946640 0.000000 -0.000156
												CHANNELS 6 Xposition Yposition Zposition Xrotation Yrotation Zrotation
												End Site
												{
													OFFSET -294.664337 0.000000 -0.113670
												}
											}
										}
									}
								}
								JOINT mixamorig:RightHandRing1
								{
									OFFSET -9.103600 -0.043076 -1.865134
									CHANNELS 6 Xposition Yposition Zposition Xrotation Yrotation Zrotation
									JOINT mixamorig:RightHandRing2
									{
										OFFSET -3.379288 0.000000 -0.001055
										CHANNELS 6 Xposition Yposition Zposition Xrotation Yrotation Zrotation
										JOINT mixamorig:RightHandRing3
										{
											OFFSET -2.889687 -0.000015 0.000379
											CHANNELS 6 Xposition Yposition Zposition Xrotation Yrotation Zrotation
											JOINT mixamorig:RightHandRing4
											{
												OFFSET -2.638809 -0.000015 0.000941
												CHANNELS 6 Xposition Yposition Zposition Xrotation Yrotation Zrotation
												End Site
												{
													OFFSET -263.880371 0.000000 0.516020
												}
											}
										}
									}
								}
								JOINT mixamorig:RightHandPinky1
								{
									OFFSET -8.076683 -0.486710 -3.806280
									CHANNELS 6 Xposition Yposition Zposition Xrotation Yrotation Zrotation
									JOINT mixamorig:RightHandPinky2
									{
										OFFSET -3.600014 -0.000015 -0.003747
										CHANNELS 6 Xposition Yposition Zposition Xrotation Yrotation Zrotation
										JOINT mixamorig:RightHandPinky3
										{
											OFFSET -2.099983 0.000000 -0.005739
											CHANNELS 6 Xposition Yposition Zposition Xrotation Yrotation Zrotation
											JOINT mixamorig:RightHandPinky4
											{
												OFFSET -2.115768 -0.000031 -0.003680
												CHANNELS 6 Xposition Yposition Zposition Xrotation Yrotation Zrotation
												End Site
												{
													OFFSET -211.577087 0.000000 -0.350686
												}
											}
										}
									}
								}
							}
						}
					}
				}
				JOINT mixamorig:LeftShoulder
				{
					OFFSET 4.570447 11.014725 -2.160855
					CHANNELS 6 Xposition Yposition Zposition Xrotation Yrotation Zrotation
					JOINT mixamorig:LeftArm
					{
						OFFSET 10.592371 -0.524597 -2.232119
						CHANNELS 6 Xposition Yposition Zposition Xrotation Yrotation Zrotation
						JOINT mixamorig:LeftForeArm
						{
							OFFSET 27.841532 -0.000031 0.000026
							CHANNELS 6 Xposition Yposition Zposition Xrotation Yrotation Zrotation
							JOINT mixamorig:LeftHand
							{
								OFFSET 28.328846 -0.000061 0.000022
								CHANNELS 6 Xposition Yposition Zposition Xrotation Yrotation Zrotation
								JOINT mixamorig:LeftHandThumb1
								{
									OFFSET 2.466141 -1.576172 2.681732
									CHANNELS 6 Xposition Yposition Zposition Xrotation Yrotation Zrotation
									JOINT mixamorig:LeftHandThumb2
									{
										OFFSET 3.217812 -1.872070 1.916482
										CHANNELS 6 Xposition Yposition Zposition Xrotation Yrotation Zrotation
										JOINT mixamorig:LeftHandThumb3
										{
											OFFSET 2.656029 -1.528778 1.514513
											CHANNELS 6 Xposition Yposition Zposition Xrotation Yrotation Zrotation
											JOINT mixamorig:LeftHandThumb4
											{
												OFFSET 2.020889 -1.154053 1.115139
												CHANNELS 6 Xposition Yposition Zposition Xrotation Yrotation Zrotation
												End Site
												{
													OFFSET 190.885437 -115.081749 130.048782
												}
											}
										}
									}
								}
								JOINT mixamorig:LeftHandIndex1
								{
									OFFSET 9.109314 -0.518021 2.259871
									CHANNELS 6 Xposition Yposition Zposition Xrotation Yrotation Zrotation
									JOINT mixamorig:LeftHandIndex2
									{
										OFFSET 3.699989 0.000000 -0.000322
										CHANNELS 6 Xposition Yposition Zposition Xrotation Yrotation Zrotation
										JOINT mixamorig:LeftHandIndex3
										{
											OFFSET 2.850006 0.000000 0.000352
											CHANNELS 6 Xposition Yposition Zposition Xrotation Yrotation Zrotation
											JOINT mixamorig:LeftHandIndex4
											{
												OFFSET 2.774864 -0.000031 -0.000027
												CHANNELS 6 Xposition Yposition Zposition Xrotation Yrotation Zrotation
												End Site
												{
													OFFSET 277.486267 0.000000 -0.009857
												}
											}
										}
									}
								}
								JOINT mixamorig:LeftHandMiddle1
								{
									OFFSET 9.533394 0.000061 0.000044
									CHANNELS 6 Xposition Yposition Zposition Xrotation Yrotation Zrotation
									JOINT mixamorig:LeftHandMiddle2
									{
										OFFSET 3.699989 -0.000015 -0.000231
										CHANNELS 6 Xposition Yposition Zposition Xrotation Yrotation Zrotation
										JOINT mixamorig:LeftHandMiddle3
										{
											OFFSET 2.949997 -0.000015 -0.000059
											CHANNELS 6 Xposition Yposition Zposition Xrotation Yrotation Zrotation
											JOINT mixamorig:LeftHandMiddle4
											{
												OFFSET 2.952896 0.000031 0.000063
												CHANNELS 6 Xposition Yposition Zposition Xrotation Yrotation Zrotation
												End Site
												{
													OFFSET 295.289337 0.000000 0.022810
												}
											}
										}
									}
								}
								JOINT mixamorig:LeftHandRing1
								{
									OFFSET 9.104523 -0.042999 -1.865074
									CHANNELS 6 Xposition Yposition Zposition Xrotation Yrotation Zrotation
									JOINT mixamorig:LeftHandRing2
									{
										OFFSET 3.150009 -0.000031 0.000043
										CHANNELS 6 Xposition Yposition Zposition Xrotation Yrotation Zrotation
										JOINT mixamorig:LeftHandRing3
										{
											OFFSET 2.949982 -0.000015 0.000040
											CHANNELS 6 Xposition Yposition Zposition Xrotation Yrotation Zrotation
											JOINT mixamorig:LeftHandRing4
											{
												OFFSET 2.644348 0.000000 0.000057
												CHANNELS 6 Xposition Yposition Zposition Xrotation Yrotation Zrotation
												End Site
												{
													OFFSET 264.434631 0.000000 0.012105
												}
											}
										}
									}
								}
								JOINT mixamorig:LeftHandPinky1
								{
									OFFSET 8.077789 -0.486847 -3.806259
									CHANNELS 6 Xposition Yposition Zposition Xrotation Yrotation Zrotation
									JOINT mixamorig:LeftHandPinky2
									{
										OFFSET 3.599953 0.000031 0.014727
										CHANNELS 6 Xposition Yposition Zposition Xrotation Yrotation Zrotation
										JOINT mixamorig:LeftHandPinky3
										{
											OFFSET 2.100021 0.000015 0.007705
											CHANNELS 6 Xposition Yposition Zposition Xrotation Yrotation Zrotation
											JOINT mixamorig:LeftHandPinky4
											{
												OFFSET 2.125504 0.000031 0.007517
												CHANNELS 6 Xposition Yposition Zposition Xrotation Yrotation Zrotation
												End Site
												{
													OFFSET 212.550781 0.000000 0.625752
												}
											}
										}
									}
								}
							}
						}
					}
				}
			}
		}
	}
	JOINT mixamorig:RightUpLeg
	{
		OFFSET -8.207787 -6.751648 -1.599560
		CHANNELS 6 Xposition Yposition Zposition Xrotation Yrotation Zrotation
		JOINT mixamorig:RightLeg
		{
			OFFSET -0.000002 -44.370117 0.345942
			CHANNELS 6 Xposition Yposition Zposition Xrotation Yrotation Zrotation
			JOINT mixamorig:RightFoot
			{
				OFFSET 0.000003 -44.423679 -3.043532
				CHANNELS 6 Xposition Yposition Zposition Xrotation Yrotation Zrotation
				JOINT mixamorig:RightToeBase
				{
					OFFSET -0.000002 -8.728671 10.710558
					CHANNELS 6 Xposition Yposition Zposition Xrotation Yrotation Zrotation
					JOINT mixamorig:RightToe_End
					{
						OFFSET -0.000001 -0.000679 9.278119
						CHANNELS 6 Xposition Yposition Zposition Xrotation Yrotation Zrotation
						End Site
						{
							OFFSET 0.000000 -0.067690 927.812134
						}
					}
				}
			}
		}
	}
	JOINT mixamorig:LeftUpLeg
	{
		OFFSET 8.207793 -6.751686 -1.599556
		CHANNELS 6 Xposition Yposition Zposition Xrotation Yrotation Zrotation
		JOINT mixamorig:LeftLeg
		{
			OFFSET -0.000004 -44.370014 0.346954
			CHANNELS 6 Xposition Yposition Zposition Xrotation Yrotation Zrotation
			JOINT mixamorig:LeftFoot
			{
				OFFSET -0.000001 -44.423672 -3.044401
				CHANNELS 6 Xposition Yposition Zposition Xrotation Yrotation Zrotation
				JOINT mixamorig:LeftToeBase
				{
					OFFSET -0.000002 -8.728669 10.710558
					CHANNELS 6 Xposition Yposition Zposition Xrotation Yrotation Zrotation
					JOINT mixamorig:LeftToe_End
					{
						OFFSET -0.000003 -0.000679 9.278133
						CHANNELS 6 Xposition Yposition Zposition Xrotation Yrotation Zrotation
						End Site
						{
							OFFSET 0.000000 -0.068021 927.813477
						}
					}
				}
			}
		}
	}
}
MOTION
Frames: 3
Frame Time: 0.033333
0.000006 104.270477 1.554256 0.000010 0.000003 -0.000113 -0.000005 10.181587 0.131522 0.000001 -0.000003 0.000084 -0.000000 9.893967 -1.470711 0.000001 0.000000 -0.000000 -0.000000 9.220802 -1.370642 0.000000 -0.000000 -0.000000 0.000001 16.740433 -2.049030 0.000000 -0.000000 -0.000000 0.000000 9.617859 1.685014 0.000000 0.000000 0.000000 0.000002 22.037384 7.501101 0.000000 -0.000000 0.000000 -4.569968 11.014880 -2.160881 0.000008 0.000001 -0.000038 -10.592868 -0.524781 -2.231870 73.627575 36.871338 -28.018664 -27.841515 -0.000011 0.000591 -44.884527 110.251998 61.305524 -28.328814 0.000022 0.000034 -0.000319 -0.000043 0.000004 -2.464404 -1.573835 2.682353 -40.418775 -155.146231 6.027768 -3.215207 -1.872476 1.924609 143.072929 33.225062 42.115964 -2.654959 -1.527866 1.513056 149.964576 28.276295 -20.457284 -2.018826 -1.151998 1.108065 -0.000004 -0.000001 0.000002 -9.108378 -0.517576 2.260201 113.841167 15.574247 -23.784380 -3.700073 0.000313 0.001561 108.291003 12.924968 -17.783926 -2.850093 0.000361 -0.000192 109.951381 10.055708 -14.308858 -2.772158 -0.000001 -0.000019 0.000002 -0.000002 0.000001 -9.532610 0.000263 0.000308 108.823737 16.680797 -23.354158 -3.700071 0.000318 0.004048 109.153943 12.593718 -17.503379 -2.950044 0.000320 -0.001747 111.067038 10.470560 -15.196329 -2.946626 0.000000 -0.000153 -0.000003 0.000000 0.000001 -9.103701 -0.042770 -1.864789 108.689504 18.940222 -26.116951 -3.379356 0.000298 -0.000720 112.118293 11.954171 -17.711778 -2.889771 0.000342 0.000748 116.928809 8.071992 -13.194000 -2.638800 0.000000 0.000942 0.000000 0.000000 -0.000001 -8.076772 -0.486407 -3.806017 87.772152 21.727274 -20.766210 -3.600065 0.000272 -0.003475 95.252138 13.228309 -14.076088 -2.100019 0.000303 -0.005435 99.979872 7.639275 -8.826747 -2.115774 -0.000051 -0.003677 0.000001 -0.000002 -0.000004 4.570446 11.014691 -2.160851 -0.000018 0.000010 -0.000021 10.592422 -0.524469 -2.232378 73.062568 -19.633664 14.609209 27.841816 0.000058 -0.000234 99.098354 -71.553547 80.408457 28.328808 -0.000029 0.000020 0.000024 -0.000090 0.000000 2.466182 -1.576141 2.681871 -8.820860 156.175513 -65.827512 3.217781 -1.871729 1.916369 158.540370 -31.675989 -1.581483 2.656104 -1.528661 1.514460 138.719954 -28.089903 48.230845 2.020871 -1.154076 1.115143 -0.000003 0.000001 0.000004 9.109379 -0.517873 2.259742 80.955015 -17.402181 14.871256 3.700041 0.000124 -0.000455 77.447863 -16.866093 13.573025 2.850083 0.000161 0.000221 74.372291 -14.397270 10.946030 2.774904 -0.000017 -0.000026 -0.000001 -0.000002 -0.000000 9.533469 0.000186 -0.000106 78.574790 -16.447604 13.479371 3.700053 0.000148 -0.000390 82.028516 -15.808777 13.768060 2.950075 0.000128 -0.000185 82.029732 -19.079628 16.634405 2.952872 -0.000030 0.000065 0.000002 0.000000 0.000001 9.104591 -0.042871 -1.865237 77.338929 -15.434404 12.380219 3.150074 0.000167 -0.000086 83.510817 -14.748238 13.182228 2.950023 0.000157 -0.000063 84.416733 -16.364209 14.862056 2.644325 0.000032 0.000057 0.000002 -0.000001 0.000000 8.077845 -0.486754 -3.806405 67.567530 -15.781777 10.995528 3.600011 0.000154 0.014584 69.904370 -14.886433 10.804474 2.100044 0.000155 0.007556 72.977067 -14.108552 10.829504 2.125500 -0.000015 0.007517 -0.000001 -0.000001 0.000001 -8.207786 -6.751667 -1.599560 -0.077001 -0.000003 0.000080 -0.000002 -44.370110 0.345938 0.153719 -0.000000 -0.000000 0.000000 -44.423679 -3.043532 -0.076700 0.000000 -0.000002 -0.000006 -8.728667 10.710559 -0.000009 -0.000000 -0.000000 -0.000001 -0.000679 9.278123 0.000000 -0.000000 -0.000000 8.207792 -6.751710 -1.599556 -0.074518 -0.000003 0.000081 -0.000002 -44.370014 0.346960 0.148822 0.000002 0.000000 -0.000001 -44.423664 -3.044403 -0.074314 0.000000 -0.000002 -0.000004 -8.728671 10.710558 0.000007 -0.000000 -0.000000 0.000000 -0.000680 9.278137 -0.000000 0.000000 -0.000001 
0.000006 104.270477 1.554256 0.000010 0.000003 -0.000113 -0.000005 10.181587 0.131522 0.000001 -0.000003 0.000084 -0.000000 9.893967 -1.470711 0.000001 0.000000 -0.000000 -0.000000 9.220802 -1.370642 0.000000 -0.000000 -0.000000 0.000001 16.740433 -2.049030 0.000000 -0.000000 -0.000000 0.000000 9.617859 1.685014 0.000000 0.000000 0.000000 0.000002 22.037384 7.501101 0.000000 -0.000000 0.000000 -4.569968 11.014880 -2.160881 0.000008 0.000001 -0.000038 -10.592861 -0.524792 -2.231847 73.908685 40.256100 -30.829469 -27.841513 -0.000011 0.000562 -44.295437 106.347131 57.053697 -28.328814 0.000009 0.000028 -0.000319 -0.000044 0.000007 -2.464401 -1.573847 2.682319 -41.230010 -151.809615 3.330292 -3.215192 -1.872465 1.924592 140.553764 32.615499 49.279924 -2.654957 -1.527846 1.513054 149.251012 28.307417 -20.594643 -2.018831 -1.151986 1.108062 -0.000002 -0.000006 0.000004 -9.108377 -0.517546 2.260202 114.863551 14.523600 -22.635684 -3.700052 0.000317 0.001548 110.190253 11.675415 -16.639680 -2.850092 0.000376 -0.000191 109.919594 9.497768 -13.510811 -2.772159 -0.000015 -0.000016 0.000001 -0.000000 0.000001 -9.532580 0.000264 0.000312 111.240566 13.793004 -20.253311 -3.700062 0.000327 0.004042 109.597051 10.210691 -14.303967 -2.950054 0.000323 -0.001736 109.870935 9.900214 -14.059278 -2.946616 0.000002 -0.000153 -0.000005 -0.000001 -0.000000 -9.103705 -0.042768 -1.864791 110.116050 17.342663 -24.562865 -3.379330 0.000299 -0.000707 115.165759 10.009754 -15.731157 -2.889760 0.000328 0.000765 118.742757 8.713501 -14.744150 -2.638809 -0.000003 0.000946 0.000005 0.000000 0.000000 -8.076779 -0.486405 -3.805979 91.893522 23.425479 -24.026719 -3.600031 0.000262 -0.003476 97.591300 12.251423 -13.552716 -2.100006 0.000312 -0.005447 100.906517 7.455142 -8.750535 -2.115772 -0.000042 -0.003678 -0.000001 -0.000002 -0.000004 4.570446 11.014691 -2.160851 -0.000018 0.000010 -0.000021 10.592440 -0.524462 -2.232386 73.354811 -26.586412 19.959483 27.841822 0.000029 -0.000202 101.540837 -75.678919 87.148440 28.328831 -0.000031 0.000019 0.000025 -0.000088 -0.000000 2.466262 -1.576023 2.681826 9.425425 169.823829 -104.608712 3.217852 -1.871784 1.916397 166.240384 -25.393299 26.014449 2.656108 -1.528665 1.514499 141.994442 -26.551809 57.857713 2.020899 -1.154065 1.115143 0.000002 0.000001 0.000002 9.109387 -0.517883 2.259743 81.861354 -22.628546 19.674331 3.700047 0.000146 -0.000462 77.489999 -14.195354 11.425576 2.850051 0.000174 0.000220 75.820236 -11.358757 8.856169 2.774894 -0.000045 -0.000025 0.000001 -0.000002 0.000000 9.533474 0.000174 -0.000093 79.934653 -21.757887 18.293137 3.700053 0.000171 -0.000366 81.692594 -12.245033 10.594752 2.950050 0.000172 -0.000206 82.463497 -11.770415 10.326712 2.952880 -0.000014 0.000063 0.000002 -0.000002 0.000000 9.104593 -0.042882 -1.865220 78.914920 -21.574676 17.827260 3.150055 0.000181 -0.000097 82.787910 -13.344599 11.775833 2.950018 0.000156 -0.000080 83.402402 -10.497407 9.360184 2.644329 0.000016 0.000059 0.000000 -0.000002 0.000002 8.077844 -0.486761 -3.806388 69.996188 -21.610635 15.666147 3.600005 0.000130 0.014574 69.069810 -16.875615 12.030509 2.100045 0.000152 0.007541 71.909878 -12.346031 9.327287 2.125496 -0.000015 0.007515 0.000001 -0.000002 0.000000 -8.207786 -6.751667 -1.599560 -0.077001 -0.000003 0.000080 -0.000002 -44.370110 0.345938 0.153719 -0.000000 -0.000000 0.000000 -44.423679 -3.043532 -0.076700 0.000000 -0.000002 -0.000006 -8.728667 10.710559 -0.000009 -0.000000 -0.000000 -0.000001 -0.000679 9.278123 0.000000 -0.000000 -0.000000 8.207792 -6.751710 -1.599556 -0.074518 -0.000003 0.000081 -0.000002 -44.370014 0.346960 0.148822 0.000002 0.000000 -0.000001 -44.423664 -3.044403 -0.074314 0.000000 -0.000002 -0.000004 -8.728671 10.710558 0.000007 -0.000000 -0.000000 0.000000 -0.000680 9.278137 -0.000000 0.000000 -0.000001 
0.000006 104.270477 1.554256 0.000010 0.000003 -0.000113 -0.000005 10.181587 0.131522 0.000001 -0.000003 0.000084 -0.000000 9.893967 -1.470711 0.000001 0.000000 -0.000000 -0.000000 9.220802 -1.370642 0.000000 -0.000000 -0.000000 0.000001 16.740433 -2.049030 0.000000 -0.000000 -0.000000 0.000000 9.617859 1.685014 0.000000 0.000000 0.000000 0.000002 22.037384 7.501101 0.000000 -0.000000 0.000000 -4.569968 11.014880 -2.160881 0.000008 0.000001 -0.000038 -10.592842 -0.524817 -2.231814 74.186503 46.736806 -36.184723 -27.841509 0.000010 0.000542 -43.762689 104.516395 54.845173 -28.328836 -0.000003 0.000026 -0.000319 -0.000043 0.000010 -2.464387 -1.573829 2.682325 -43.062891 -153.309675 -0.160430 -3.215217 -1.872455 1.924586 141.482861 32.760364 45.152492 -2.654972 -1.527864 1.513057 149.215728 28.535417 -18.495169 -2.018823 -1.152001 1.108060 -0.000003 -0.000003 0.000004 -9.108366 -0.517565 2.260192 113.659238 14.139806 -21.557088 -3.700081 0.000323 0.001584 109.747664 11.348960 -16.046180 -2.850068 0.000368 -0.000207 109.516373 9.264819 -13.083594 -2.772149 -0.000013 -0.000013 -0.000000 0.000002 0.000000 -9.532581 0.000266 0.000317 110.755752 13.331957 -19.415608 -3.700054 0.000334 0.004042 109.769282 10.143448 -14.254431 -2.950074 0.000341 -0.001736 110.022620 9.905420 -14.105916 -2.946627 0.000013 -0.000154 0.000000 -0.000002 0.000001 -9.103704 -0.042769 -1.864790 109.021430 16.772580 -23.301826 -3.379348 0.000293 -0.000690 115.214595 10.124018 -15.923900 -2.889761 0.000341 0.000736 119.730225 8.862084 -15.288224 -2.638824 -0.000017 0.000942 0.000004 -0.000005 0.000000 -8.076773 -0.486404 -3.805988 90.986651 22.619800 -22.842379 -3.600059 0.000266 -0.003467 97.950739 12.303054 -13.696823 -2.100032 0.000302 -0.005419 101.726741 7.496012 -8.928599 -2.115764 -0.000055 -0.003683 -0.000000 -0.000005 -0.000004 4.570446 11.014691 -2.160851 -0.000018 0.000010 -0.000021 10.592463 -0.524473 -2.232410 72.514732 -34.655584 25.778034 27.841822 0.000036 -0.000177 102.334484 -77.224161 89.547974 28.328840 -0.000030 0.000016 0.000021 -0.000092 -0.000000 2.466261 -1.576019 2.681813 15.617712 172.727930 -113.949774 3.217868 -1.871824 1.916406 167.656665 -21.553388 38.570707 2.656104 -1.528682 1.514479 142.254235 -26.343667 59.503502 2.020890 -1.154083 1.115141 0.000006 -0.000004 0.000003 9.109377 -0.517888 2.259749 82.577260 -23.541282 20.727915 3.700054 0.000143 -0.000472 79.210646 -15.377515 12.762348 2.850047 0.000164 0.000220 78.687884 -12.305171 10.099082 2.774895 -0.000030 -0.000024 0.000001 0.000000 -0.000000 9.533451 0.000192 -0.000068 81.043958 -22.916745 19.650068 3.700049 0.000161 -0.000370 83.110288 -12.912859 11.454472 2.950052 0.000173 -0.000203 84.387103 -11.703525 10.618917 2.952884 -0.000016 0.000064 0.000004 0.000000 0.000002 9.104585 -0.042882 -1.865212 80.368193 -22.759302 19.296411 3.150054 0.000173 -0.000095 83.114079 -13.946485 12.378290 2.950012 0.000173 -0.000085 83.922500 -10.355222 9.317617 2.644311 0.000031 0.000055 -0.000002 0.000001 -0.000000 8.077832 -0.486745 -3.806386 71.525748 -22.798589 16.984684 3.600020 0.000126 0.014576 70.055850 -17.875601 12.964615 2.100029 0.000159 0.007534 72.982388 -12.850808 9.888733 2.125504 -0.000015 0.007517 -0.000000 -0.000002 0.000000 -8.207786 -6.751667 -1.599560 -0.077001 -0.000003 0.000080 -0.000002 -44.370110 0.345938 0.153719 -0.000000 -0.000000 0.000000 -44.423679 -3.043532 -0.076700 0.000000 -0.000002 -0.000006 -8.728667 10.710559 -0.000009 -0.000000 -0.000000 -0.000001 -0.000679 9.278123 0.000000 -0.000000 -0.000000 8.207792 -6.751710 -1.599556 -0.074518 -0.000003 0.000081 -0.000002 -44.370014 0.346960 0.148822 0.000002 0.000000 -0.000001 -44.423664 -3.044403 -0.074314 0.000000 -0.000002 -0.000004 -8.728671 10.710558 0.000007 -0.000000 -0.000000 0.000000 -0.000680 9.278137 -0.000000 0.000000 -0.000001 
